<svg width="39" height="39" viewBox="0 0 39 39" fill="none" xmlns="http://www.w3.org/2000/svg">
<path fill-rule="evenodd" clip-rule="evenodd" d="M38 24C35.3469 34.6403 25.6427 40.6534 15 38C4.36165 35.3472 -1.65431 25.6397 0.999996 15C3.65182 4.35843 13.3604 -1.65281 24 0.999974C34.6421 3.65276 40.6531 13.3591 38 24ZM28 17C28.3954 14.3571 25.7518 12.9478 23 12L24 7.99997H22L21 11C20.427 10.8572 20.5847 11.1334 20 11V7.99997L19 6.99997L18 11C17.5257 10.892 17.4519 10.1123 17 9.99997V9.99997L14 8.99997L13 12C13 12 15.0341 11.977 15 12C15.8827 12.2203 16.0267 12.5369 16 13L15 18C15.0608 18.0155 14.9131 17.9652 15 18C14.9274 17.982 15.0801 18.0192 15 18L13 22C12.892 22.2681 12.617 23.1527 12 23C12.0217 23.0316 11 22 11 22L10 25L13 26C13.5276 26.1322 13.491 25.8696 14 26L13 30H15L16 27C16.5947 27.1613 17.4351 26.8597 18 27L17 31H19L20 28C23.7164 28.7032 25.8237 28.361 27 25C27.9479 22.2938 26.9553 20.0179 25 19C26.424 18.6716 27.7138 18.9346 28 17ZM23 23C22.3265 25.7061 18.4774 24.3668 17 24L18 19C19.4774 19.3687 23.7039 20.1777 23 23ZM23 17C22.3855 19.4616 20.2303 18.3066 19 18L20 14C21.2303 14.3066 23.64 14.4322 23 17Z" fill="#323232"/>
</svg>
