<svg width="33" height="27" viewBox="0 0 33 27" fill="none" xmlns="http://www.w3.org/2000/svg">
<path fill-rule="evenodd" clip-rule="evenodd" d="M5 0H23C25.7338 0 28 2.20406 28 5V7C30.7338 7 33 9.20406 33 12V22C33 24.7959 30.7338 27 28 27H10C7.26619 27 5 24.7959 5 22C2.26619 22 0 19.7959 0 17V5C0 2.20406 2.26619 0 5 0ZM8 22C8 22.932 9.08873 24 10 24H28C28.9113 24 30 22.932 30 22V12C30 11.068 28.9113 10 28 10V17C28 19.7959 25.7338 22 23 22H8ZM5 3C4.08873 3 3 4.06802 3 5V6H25V5C25 4.06802 23.9113 3 23 3H5ZM3 17V9H25V17C25 17.932 23.9113 19 23 19H5C4.08873 19 3 17.932 3 17ZM18 14C17.0887 14 17 14.068 17 15C17 15.932 17.0887 17 18 17H20C20.9113 17 21 15.932 21 15C21 14.068 20.9113 14 20 14H18ZM6 15C6 14.068 6.08873 14 7 14H12C12.9113 14 14 14.068 14 15C14 15.932 12.9113 17 12 17H7C6.08873 17 6 15.932 6 15Z" fill="white"/>
</svg>
