<svg width="40" height="40" viewBox="0 0 40 40" fill="none" xmlns="http://www.w3.org/2000/svg">
<path fill-rule="evenodd" clip-rule="evenodd" d="M5 3C4.09393 3 3 4.08873 3 5C3 5.91127 4.09393 6 5 6V5V6V6V6V6V6V6V6V6V6V6V6V6V6V6V6V6V6V6V6H6H7L11 28C11.1621 28.7608 12.2264 29 13 29H16C14.1879 29 13 31.1775 13 33C13 34.8225 14.1879 36 16 36C17.8121 36 19 34.8225 19 33C19 31.1775 17.8121 29 16 29H26C24.1879 29 23 31.1775 23 33C23 34.8225 24.1879 36 26 36C27.8121 36 29 34.8225 29 33C29 31.1775 27.8121 29 26 29H30C30.9061 29 32 28.9113 32 28C32 27.0887 30.9061 26 30 26H14V24H29C29.6839 24 30.7599 23.644 31 23L36 10C36.1889 9.49329 36.3065 9.4448 36 9C35.6935 8.5552 34.5381 8 34 8H10V4C9.83791 3.23923 8.7736 3 8 3H6H5V3V3V3V3V3V3V3V3V3V3V3V3V3V3V3V3V3V3V3V3V3V3V3V3V3V3V5V3ZM11 11L13 21H28L32 11H11Z" fill="white"/>
</svg>
