<svg width="25" height="22" viewBox="0 0 25 22" fill="none" xmlns="http://www.w3.org/2000/svg">
<path fill-rule="evenodd" clip-rule="evenodd" d="M0.5 4V15C0.5 17.0509 2.51178 18 4.5 18H7.5V19C7.5 21.6587 10.5602 22.7508 12.5 21L15.5 18H20.5C22.4882 18 24.5 17.0509 24.5 15V4C24.5 1.94912 22.4882 0 20.5 0H4.5C2.51178 0 0.5 1.94912 0.5 4ZM7.5 16C8.41358 16 9.09452 16.2251 9.5 17C9.63908 17.2771 10.4714 17.6741 10.5 18C10.5065 18.0745 10.5 17.9238 10.5 18V19C10.5 19.5317 11.1121 19.3502 11.5 19L14.5 17C14.9375 16.6051 14.9187 16 15.5 16H20.5C21.1627 16 22.5 15.6836 22.5 15V4C22.5 3.31637 21.1627 2 20.5 2H4.5C3.83726 2 2.5 3.31637 2.5 4V15C2.5 15.6836 3.83726 16 4.5 16H7.5ZM7.5 7C6.50589 7 5.5 7.98008 5.5 9C5.5 10.0199 6.50589 11 7.5 11C8.49411 11 8.5 10.0199 8.5 9C8.5 7.98008 8.49411 7 7.5 7ZM10.5 9C10.5 7.98008 11.5059 7 12.5 7C13.4941 7 14.5 7.98008 14.5 9C14.5 10.0199 13.4941 11 12.5 11C11.5059 11 10.5 10.0199 10.5 9ZM17.5 7C16.5059 7 16.5 7.98008 16.5 9C16.5 10.0199 16.5059 11 17.5 11C18.4941 11 19.5 10.0199 19.5 9C19.5 7.98008 18.4941 7 17.5 7Z" fill="white" fill-opacity="0.9"/>
</svg>
