<svg width="25" height="24" viewBox="0 0 25 24" fill="none" xmlns="http://www.w3.org/2000/svg">
<path fill-rule="evenodd" clip-rule="evenodd" d="M0.5 12C0.5 18.6274 5.87258 24 12.5 24C19.1274 24 24.5 18.6274 24.5 12C24.5 5.37258 19.1274 0 12.5 0C5.87258 0 0.5 5.37258 0.5 12ZM2.5 12C2.5 6.69807 7.19807 2 12.5 2C17.8019 2 22.5 6.69807 22.5 12C22.5 17.3019 17.8019 22 12.5 22C7.19807 22 2.5 17.3019 2.5 12ZM13.5 5C13.5 4.33726 13.1627 4 12.5 4C11.8373 4 11.5 4.33726 11.5 5V6C9.51178 6 7.5 8.01178 7.5 10C7.5 11.9882 9.51178 13 11.5 13H13.5C14.1627 13 14.5 13.3373 14.5 14C14.5 14.6627 14.1627 16 13.5 16H9.5C8.83726 16 8.5 16.3373 8.5 17C8.5 17.6627 8.83726 18 9.5 18H11.5V19C11.5 19.6627 11.8373 20 12.5 20C13.1627 20 13.5 19.6627 13.5 19V18C15.4882 18 17.5 15.9882 17.5 14C17.5 12.0118 15.4882 11 13.5 11H11.5C10.8373 11 10.5 10.6627 10.5 10C10.5 9.33726 10.8373 8 11.5 8H15.5C16.1627 8 16.5 7.66274 16.5 7C16.5 6.33726 16.1627 6 15.5 6H13.5V5Z" fill="white" fill-opacity="0.9"/>
</svg>
