<svg width="25" height="26" viewBox="0 0 25 26" fill="none" xmlns="http://www.w3.org/2000/svg">
<path d="M20 17C20.0639 17.4975 19.1592 18 19 18C18.8408 18 19.2382 17.3846 19 17C18.7618 16.6154 18.8721 16.2233 19 16C19.079 15.8548 18.7931 15.9194 19 16C19.4137 16.1613 19.9687 16.7271 20 17V17ZM17 18C17.4927 18.4169 18.2558 18.6464 18 19C17.9197 19.0928 18.1128 18.9502 18 19C17.8872 19.0498 17.1234 19.0029 17 19C16.7252 19.0027 16.2074 19.1785 16 19C15.5549 18.6154 15.7141 18.3523 16 18C16.061 17.9253 15.9113 18.039 16 18C16.0887 17.961 16.9031 17.9948 17 18C17.2545 18 16.7455 17.7754 17 18V18ZM0 11C0 4.90467 4.95193 0 11 0C17.0493 0 22 4.90591 22 11C22.0001 12.9892 22.011 15.2806 21 17C20.9674 17.0484 20.015 17.0645 20 17C19.6189 14.2892 18.3871 12.4491 16 12C15.7919 11.9677 15.7292 12.031 16 12C16.7322 11.9355 17.4596 11.9032 18 12C18.0326 11.7271 18 11.2891 18 11C18 6.97408 14.9957 4 11 4C7.00557 4 4 6.97408 4 11C4 15.0272 7.00557 18 11 18V18C10.8863 17.3488 10.9822 16.6606 11 16C11.0163 15.5509 11.8094 15.6477 12 16C13.003 17.7493 14.1979 19.376 17 20C19.2918 20.5149 21.5326 21.8401 24 25C24.2219 25.2729 24.2545 25.2246 24 25C21.485 22.7544 19.085 22 17 22C14.6593 22.0174 12.6086 22 11 22C4.95193 22 0 17.0953 0 11V11Z" fill="white"/>
</svg>
