<svg width="40" height="40" viewBox="0 0 40 40" fill="none" xmlns="http://www.w3.org/2000/svg">
<path d="M20 0C31.0452 0 40 8.9548 40 20C40 31.0452 31.0448 40 20 40C8.9552 40 0 31.0476 0 20C0 8.9524 8.9536 0 20 0Z" fill="#323232"/>
<path d="M22 17V14H29V10H11V14H18V17C12.5332 17.2499 8 18.7091 8 20C8 21.2909 12.5352 22.7485 18 23V32H22V23C27.4569 22.7493 32 21.2897 32 20C32 18.7103 27.4569 17.2507 22 17M22 22V22C21.8628 22.0087 21.5698 22 20 22C18.7449 22 18.3112 22.0161 18 22V22C13.1703 21.7871 9 21.0016 9 20C9 18.9984 13.1707 18.2133 18 18V21C18.3163 21.0216 18.7512 21 20 21C21.4999 21 21.8616 21.0126 22 21V18C26.8202 18.2137 31 19.0019 31 20C31 20.9981 26.8187 21.7863 22 22" fill="white"/>
</svg>
