<svg width="23" height="19" viewBox="0 0 23 19" fill="none" xmlns="http://www.w3.org/2000/svg">
<path fill-rule="evenodd" clip-rule="evenodd" d="M6.5 7C5.14997 7 4.5 6.31168 4.5 5C4.5 3.68832 5.14997 2 6.5 2C7.85003 2 9.5 3.68832 9.5 5C9.5 6.31168 7.85003 7 6.5 7ZM10.5 8C11.4053 7.13789 11.5 6.32889 11.5 5C11.5 2.37665 9.20006 0 6.5 0C3.79994 0 1.5 2.37665 1.5 5C1.5 6.32889 2.59473 7.13789 3.5 8C1.87734 9.06745 0.5 10.9527 0.5 13V18C0.5 18.6558 0.824985 19 1.5 19C2.17501 19 2.5 18.6558 2.5 18V13C2.5 11.0325 4.47496 10 6.5 10C8.52504 10 10.5 11.0325 10.5 13V18C10.5 18.6558 10.825 19 11.5 19C12.175 19 12.5 18.6558 12.5 18V13C12.5 10.9527 12.1227 9.06745 10.5 8ZM18.5 0C19.175 0 19.5 0.344162 19.5 1V3H21.5C22.175 3 22.5 3.34416 22.5 4C22.5 4.65584 22.175 5 21.5 5H19.5V7C19.5 7.65584 19.175 8 18.5 8C17.825 8 17.5 7.65584 17.5 7V5H15.5C14.825 5 13.5 4.65584 13.5 4C13.5 3.34416 14.825 3 15.5 3H17.5V1C17.5 0.344162 17.825 0 18.5 0Z" fill="white" fill-opacity="0.9"/>
</svg>
