<svg width="24" height="22" viewBox="0 0 24 22" fill="none" xmlns="http://www.w3.org/2000/svg">
<path fill-rule="evenodd" clip-rule="evenodd" d="M20 22C21.9882 22 24 20.025 24 18V4C24 1.97496 21.9882 0 20 0H12H7H4C2.01178 3.84539e-06 0 1.97496 0 4V7V11V18C0 20.025 2.01177 22 4 22H20ZM20 2C20.6627 2 22 3.32499 22 4V18C22 18.675 20.6627 20 20 20H4C3.33726 20 2 18.675 2 18V11V7V4C2 3.32499 3.33726 2 4 2H7H12H20ZM5 4C4.17157 4 4 4.15623 4 5C4 5.84377 4.17157 7 5 7C5.82843 7 7 5.84377 7 5C7 4.15623 5.82843 4 5 4ZM8 5C8 4.15623 9.17157 4 10 4C10.8284 4 11 4.15623 11 5C11 5.84377 10.8284 7 10 7C9.17157 7 8 5.84377 8 5ZM15 10C15.3605 9.43356 15.5561 9.36714 15 9C14.4439 8.63286 13.3605 8.43356 13 9L11 12V12C10.6186 11.448 9.54199 10.6115 9 11C8.45801 11.3885 8.6186 12.448 9 13L10 15C10.2294 15.332 10.6015 16.0077 11 16C11.3985 15.9923 11.7832 15.3407 12 15L15 10Z" fill="white" fill-opacity="0.85"/>
</svg>
