<svg width="24" height="24" viewBox="0 0 24 24" fill="none" xmlns="http://www.w3.org/2000/svg">
<path fill-rule="evenodd" clip-rule="evenodd" d="M0 12C0 18.6274 5.37258 24 12 24C18.6274 24 24 18.6274 24 12C24 5.37258 18.6274 0 12 0C5.37258 0 0 5.37258 0 12ZM2 12C2 6.69807 6.69807 2 12 2C17.3019 2 22 6.69807 22 12C22 17.3019 17.3019 22 12 22C6.69807 22 2 17.3019 2 12ZM13 5C13 4.33726 12.6627 4 12 4C11.3373 4 11 4.33726 11 5V6C9.01178 6 7 8.01178 7 10C7 11.9882 9.01178 13 11 13H13C13.6627 13 14 13.3373 14 14C14 14.6627 13.6627 16 13 16H9C8.33726 16 8 16.3373 8 17C8 17.6627 8.33726 18 9 18H11V19C11 19.6627 11.3373 20 12 20C12.6627 20 13 19.6627 13 19V18C14.9882 18 17 15.9882 17 14C17 12.0118 14.9882 11 13 11H11C10.3373 11 10 10.6627 10 10C10 9.33726 10.3373 8 11 8H15C15.6627 8 16 7.66274 16 7C16 6.33726 15.6627 6 15 6H13V5Z" fill="white" fill-opacity="0.85"/>
</svg>
