<svg width="22" height="24" viewBox="0 0 22 24" fill="none" xmlns="http://www.w3.org/2000/svg">
<path fill-rule="evenodd" clip-rule="evenodd" d="M7 2C6.32498 2 6 1.66679 6 1C6 0.333213 6.32498 0 7 0H13C13.675 0 14 0.333213 14 1C14 1.66679 13.675 2 13 2H11V5C11 5.03149 11.0024 4.96911 11 5C12.7291 5.23887 14.6841 5.98957 16 7V6C16.4773 5.52851 17.5227 5.52851 18 6C18.4773 6.47149 18.4773 7.52851 18 8C19.0803 9.37284 18.7987 11.1795 19 13H21C21.675 13 22 13.3332 22 14C22 14.6668 21.675 16 21 16H19C18.3336 20.6933 14.935 24 10 24C4.59988 24 0 19.3343 0 14C0 9.02386 4.10463 5.52775 9 5C8.9991 4.98095 9 5.01927 9 5V2H7ZM17 14C17 18.0007 14.0501 22 10 22C5.94991 22 2 18.0007 2 14C2 9.99928 5.94991 7 10 7C14.0501 7 17 9.99928 17 14ZM6 11C6.47731 10.5285 7.52269 10.5285 8 11L11 13C11.4773 13.4715 11.4773 14.5285 11 15C10.5227 15.4715 9.47731 15.4715 9 15L6 13C5.52269 12.5285 5.52269 11.4715 6 11Z" fill="white" fill-opacity="0.85"/>
</svg>
