<svg width="35" height="35" viewBox="0 0 35 35" fill="none" xmlns="http://www.w3.org/2000/svg">
<g clip-path="url(#clip0_35_108)">
<path d="M18 21C19.6569 21 21 19.6569 21 18C21 16.3431 19.6569 15 18 15C16.3431 15 15 16.3431 15 18C15 19.6569 16.3431 21 18 21Z" fill="white"/>
<path fill-rule="evenodd" clip-rule="evenodd" d="M18 12C22.2582 12 26.0174 12.97 29 14C32.5936 15.241 35 16.2967 35 18C35 19.775 32.8591 22.7174 29 24C26.0824 24.9696 22.0421 25 18 25C13.8557 25 9.95044 25.0113 7 24C3.26716 22.7202 1 19.7412 1 18C1 16.3105 3.45688 15.2391 7 14C9.99375 12.953 13.7002 12 18 12V12Z" stroke="white" stroke-width="1.48734"/>
<path fill-rule="evenodd" clip-rule="evenodd" d="M12 15C14.0554 11.2618 16.7009 8.09865 19 6.00004C21.77 3.47153 24.5788 2.14044 26 3.00004C27.4811 3.8959 28.7925 6.9649 28 11C27.4014 14.0508 25.9511 18.4514 24 22C21.9996 25.6383 19.2678 28.9209 17 31C14.1304 33.6312 11.4528 34.8789 9.99999 34C8.59023 33.1479 7.32369 29.736 7.99999 26C8.57141 22.8434 9.92517 18.7749 12 15V15Z" stroke="white" stroke-width="1.48734"/>
<path fill-rule="evenodd" clip-rule="evenodd" d="M12 22.0001C9.94289 18.2651 8.5846 14.1382 7.99999 11.0001C7.29627 7.21908 8.58291 3.86239 9.99999 3.00007C11.4767 2.10135 14.0687 3.26392 17 6.00007C19.2163 8.06871 22.0471 11.4539 24 15.0001C26.0022 18.6358 27.4162 22.9002 28 26.0001C28.7386 29.9229 27.4486 33.1185 26 34.0001C24.5944 34.8555 21.7426 33.4812 19 31.0001C16.6827 28.9039 14.0774 25.7722 12 22.0001V22.0001Z" stroke="white" stroke-width="1.48734"/>
</g>
<defs>
<clipPath id="clip0_35_108">
<rect width="35" height="35" fill="white"/>
</clipPath>
</defs>
</svg>
