<svg width="16" height="14" viewBox="0 0 16 14" fill="none" xmlns="http://www.w3.org/2000/svg">
<path fill-rule="evenodd" clip-rule="evenodd" d="M1.47591 6.026C5.48422 4.34151 8.13855 3.56255 9.47591 3.026C13.2943 1.49405 13.9588 1.03479 14.4759 1.026C14.5897 1.02407 15.3112 0.897062 15.4759 1.026C15.615 1.13487 15.4576 1.92278 15.4759 2.026C15.4942 2.12922 15.494 1.84226 15.4759 2.026C15.269 4.12313 13.9314 9.67718 13.4759 12.026C13.2832 13.0199 12.8433 12.9934 12.4759 13.026C11.6774 13.0969 11.2493 12.515 10.4759 12.026C9.26576 11.2608 8.65057 10.7727 7.47591 10.026C6.11839 9.1631 7.70226 8.80108 8.47591 8.026C8.67838 7.82316 11.4078 4.306 11.4759 4.026C11.4844 3.99098 11.5563 4.09493 11.4759 4.026C11.3955 3.95707 11.5615 4.00725 11.4759 4.026C11.3545 4.05257 9.22099 5.58752 5.47591 8.026C4.92717 8.38946 4.92123 8.03528 4.47591 8.026C3.98498 8.01577 2.17794 8.24612 1.47591 8.026C0.614836 7.75601 0.416317 7.48452 0.475909 7.026C0.506949 6.78717 0.825023 6.27567 1.47591 6.026Z" fill="white"/>
</svg>
