<svg width="228" height="228" viewBox="0 0 228 228" fill="none" xmlns="http://www.w3.org/2000/svg">
<path fill-rule="evenodd" clip-rule="evenodd" d="M32.6945 124.492C27.7685 118.564 27.7685 109.967 32.6945 104.039L85.1625 40.9029C89.9482 35.144 99.3152 38.5281 99.3152 46.0159V76.0159C83.8127 81.803 72.7732 96.745 72.7732 114.265C72.7732 131.786 83.8127 146.728 99.3152 152.515V182.515C99.3152 190.003 89.9482 193.387 85.1625 187.628L32.6945 124.492ZM128.361 152.324V182.401C128.361 189.902 137.756 193.278 142.531 187.493L194.571 124.451C199.452 118.538 199.452 109.993 194.571 104.08L142.531 41.0374C137.756 35.2528 128.361 38.6294 128.361 46.1303V76.2066C143.6 82.1261 154.402 96.9343 154.402 114.265C154.402 131.597 143.6 146.405 128.361 152.324Z" fill="#008CFF"/>
<ellipse cx="113.602" cy="114.447" rx="22" ry="22.5" fill="white"/>
</svg>
